<?xml version="1.0" encoding="UTF-8" standalone="no"?>
<!-- Created with Inkscape (http://www.inkscape.org/) -->

<svg
   xmlns:dc="http://purl.org/dc/elements/1.1/"
   xmlns:cc="http://creativecommons.org/ns#"
   xmlns:rdf="http://www.w3.org/1999/02/22-rdf-syntax-ns#"
   xmlns:svg="http://www.w3.org/2000/svg"
   xmlns="http://www.w3.org/2000/svg"
   xmlns:sodipodi="http://sodipodi.sourceforge.net/DTD/sodipodi-0.dtd"
   xmlns:inkscape="http://www.inkscape.org/namespaces/inkscape"
   width="70"
   height="25"
   id="svg2"
   version="1.1"
   inkscape:version="0.48.4 r9939"
   sodipodi:docname="drawing.svg">
  <defs
     id="defs4" />
  <sodipodi:namedview
     id="base"
     pagecolor="#ffffff"
     bordercolor="#666666"
     borderopacity="1.0"
     inkscape:pageopacity="0.0"
     inkscape:pageshadow="2"
     inkscape:zoom="5.6568542"
     inkscape:cx="8.1602098"
     inkscape:cy="-0.93349366"
     inkscape:document-units="px"
     inkscape:current-layer="layer1"
     showgrid="true"
     inkscape:window-width="1916"
     inkscape:window-height="1041"
     inkscape:window-x="0"
     inkscape:window-y="18"
     inkscape:window-maximized="0"
     fit-margin-top="0"
     fit-margin-left="0"
     fit-margin-right="0"
     fit-margin-bottom="0"
     inkscape:showpageshadow="false"
     inkscape:snap-bbox="true"
     inkscape:bbox-paths="true"
     inkscape:bbox-nodes="true"
     inkscape:object-nodes="true">
    <inkscape:grid
       type="xygrid"
       id="grid3793"
       empspacing="2"
       visible="true"
       enabled="true"
       snapvisiblegridlinesonly="true" />
  </sodipodi:namedview>
  <metadata
     id="metadata7">
    <rdf:RDF>
      <cc:Work
         rdf:about="">
        <dc:format>image/svg+xml</dc:format>
        <dc:type
           rdf:resource="http://purl.org/dc/dcmitype/StillImage" />
        <dc:title></dc:title>
      </cc:Work>
    </rdf:RDF>
  </metadata>
  <g
     inkscape:label="Layer 1"
     inkscape:groupmode="layer"
     id="layer1"
     transform="translate(524.14288,-452.36218)">
    <rect
       style="color:#000000;fill:#323232;fill-opacity:1;fill-rule:nonzero;stroke:none;stroke-width:3;marker:none;visibility:visible;display:inline;overflow:visible;enable-background:accumulate"
       id="rect3023"
       width="70"
       height="25"
       x="-524.14288"
       y="452.36218" />
    <rect
       style="color:#000000;fill:#3c3c3c;fill-opacity:1;fill-rule:nonzero;stroke:none;stroke-width:3;marker:none;visibility:visible;display:inline;overflow:visible;enable-background:accumulate"
       id="rect3795"
       width="21"
       height="25"
       x="-545.14288"
       y="452.36218" />
    <path
       style="font-size:medium;font-style:normal;font-variant:normal;font-weight:normal;font-stretch:normal;text-indent:0;text-align:start;text-decoration:none;line-height:normal;letter-spacing:normal;word-spacing:normal;text-transform:none;direction:ltr;block-progression:tb;writing-mode:lr-tb;text-anchor:start;baseline-shift:baseline;color:#000000;fill:#323232;fill-opacity:1;stroke:none;stroke-width:2;marker:none;visibility:visible;display:inline;overflow:visible;enable-background:accumulate;font-family:Sans;-inkscape-font-specification:Sans"
       d="m -535.14288,460.86218 c -4.46955,0 -7.75,3.84375 -7.75,3.84375 l -0.59375,0.65625 0.59375,0.65625 c 0,0 3.28045,3.84375 7.75,3.84375 4.46955,0 7.75,-3.84375 7.75,-3.84375 l 0.59375,-0.65625 -0.59375,-0.65625 c 0,0 -3.28045,-3.84375 -7.75,-3.84375 z m 0,2 c 2.57125,0 4.53444,1.66642 5.4375,2.5 -0.90306,0.83358 -2.86625,2.5 -5.4375,2.5 -2.57125,0 -4.53444,-1.66642 -5.4375,-2.5 0.90306,-0.83358 2.86625,-2.5 5.4375,-2.5 z"
       id="path3797"
       inkscape:connector-curvature="0" />
    <path
       sodipodi:type="arc"
       style="color:#000000;fill:#323232;fill-opacity:1;stroke:none;stroke-width:2;marker:none;visibility:visible;display:inline;overflow:visible;enable-background:accumulate"
       id="path3799"
       sodipodi:cx="10"
       sodipodi:cy="13"
       sodipodi:rx="1.236068"
       sodipodi:ry="2"
       d="m 11.236068,13 a 1.236068,2 0 1 1 -2.472136,0 1.236068,2 0 1 1 2.472136,0 z"
       transform="matrix(1.6180339,0,0,1.5,-551.32322,445.86218)" />
    <rect
       y="492.36218"
       x="-524.14288"
       height="25"
       width="70"
       id="rect3806"
       style="color:#000000;fill:#323232;fill-opacity:1;fill-rule:nonzero;stroke:none;stroke-width:3;marker:none;visibility:visible;display:inline;overflow:visible;enable-background:accumulate" />
    <rect
       y="492.36218"
       x="-545.14288"
       height="25"
       width="21"
       id="rect3808"
       style="color:#000000;fill:#464646;fill-opacity:1;fill-rule:nonzero;stroke:none;stroke-width:3;marker:none;visibility:visible;display:inline;overflow:visible;enable-background:accumulate" />
    <path
       inkscape:connector-curvature="0"
       id="path3810"
       d="m -535.14288,500.86218 c -4.46955,0 -7.75,3.84375 -7.75,3.84375 l -0.59375,0.65625 0.59375,0.65625 c 0,0 3.28045,3.84375 7.75,3.84375 4.46955,0 7.75,-3.84375 7.75,-3.84375 l 0.59375,-0.65625 -0.59375,-0.65625 c 0,0 -3.28045,-3.84375 -7.75,-3.84375 z m 0,2 c 2.57125,0 4.53444,1.66642 5.4375,2.5 -0.90306,0.83358 -2.86625,2.5 -5.4375,2.5 -2.57125,0 -4.53444,-1.66642 -5.4375,-2.5 0.90306,-0.83358 2.86625,-2.5 5.4375,-2.5 z"
       style="font-size:medium;font-style:normal;font-variant:normal;font-weight:normal;font-stretch:normal;text-indent:0;text-align:start;text-decoration:none;line-height:normal;letter-spacing:normal;word-spacing:normal;text-transform:none;direction:ltr;block-progression:tb;writing-mode:lr-tb;text-anchor:start;baseline-shift:baseline;color:#000000;fill:#5a5a5a;fill-opacity:1;stroke:none;stroke-width:2;marker:none;visibility:visible;display:inline;overflow:visible;enable-background:accumulate;font-family:Sans;-inkscape-font-specification:Sans" />
    <path
       transform="matrix(1.6180339,0,0,1.5,-551.32322,485.86218)"
       d="m 11.236068,13 a 1.236068,2 0 1 1 -2.472136,0 1.236068,2 0 1 1 2.472136,0 z"
       sodipodi:ry="2"
       sodipodi:rx="1.236068"
       sodipodi:cy="13"
       sodipodi:cx="10"
       id="path3812"
       style="color:#000000;fill:#5a5a5a;fill-opacity:1;stroke:none;stroke-width:2;marker:none;visibility:visible;display:inline;overflow:visible;enable-background:accumulate"
       sodipodi:type="arc" />
    <rect
       y="452.36218"
       x="-454.14288"
       height="25"
       width="21"
       id="rect3814"
       style="color:#000000;fill:#09dc00;fill-opacity:1;fill-rule:nonzero;stroke:none;stroke-width:3;marker:none;visibility:visible;display:inline;overflow:visible;enable-background:accumulate" />
    <rect
       style="color:#000000;fill:#89ff84;fill-opacity:1;fill-rule:nonzero;stroke:none;stroke-width:3;marker:none;visibility:visible;display:inline;overflow:visible;enable-background:accumulate"
       id="rect3816"
       width="21"
       height="25"
       x="-454.14288"
       y="492.36218" />
  </g>
</svg>
