<?xml version="1.0" encoding="UTF-8" standalone="no"?>
<!-- Created with Inkscape (http://www.inkscape.org/) -->

<svg
   xmlns:dc="http://purl.org/dc/elements/1.1/"
   xmlns:cc="http://creativecommons.org/ns#"
   xmlns:rdf="http://www.w3.org/1999/02/22-rdf-syntax-ns#"
   xmlns:svg="http://www.w3.org/2000/svg"
   xmlns="http://www.w3.org/2000/svg"
   xmlns:sodipodi="http://sodipodi.sourceforge.net/DTD/sodipodi-0.dtd"
   xmlns:inkscape="http://www.inkscape.org/namespaces/inkscape"
   width="70"
   height="25"
   id="svg2"
   version="1.1"
   inkscape:version="0.48.4 r9939"
   sodipodi:docname="node_show.svg">
  <defs
     id="defs4" />
  <sodipodi:namedview
     id="base"
     pagecolor="#ffffff"
     bordercolor="#666666"
     borderopacity="1.0"
     inkscape:pageopacity="0.0"
     inkscape:pageshadow="2"
     inkscape:zoom="5.6568542"
     inkscape:cx="71.328695"
     inkscape:cy="22.331068"
     inkscape:document-units="px"
     inkscape:current-layer="svg2"
     showgrid="false"
     inkscape:window-width="1916"
     inkscape:window-height="1041"
     inkscape:window-x="0"
     inkscape:window-y="18"
     inkscape:window-maximized="0"
     fit-margin-top="0"
     fit-margin-left="0"
     fit-margin-right="0"
     fit-margin-bottom="0"
     inkscape:showpageshadow="false"
     inkscape:snap-bbox="true"
     inkscape:bbox-paths="true"
     inkscape:bbox-nodes="true"
     inkscape:object-nodes="true">
    <inkscape:grid
       type="xygrid"
       id="grid3793"
       empspacing="2"
       visible="true"
       enabled="true"
       snapvisiblegridlinesonly="true" />
  </sodipodi:namedview>
  <metadata
     id="metadata7">
    <rdf:RDF>
      <cc:Work
         rdf:about="">
        <dc:format>image/svg+xml</dc:format>
        <dc:type
           rdf:resource="http://purl.org/dc/dcmitype/StillImage" />
        <dc:title></dc:title>
      </cc:Work>
    </rdf:RDF>
  </metadata>
  <rect
     style="color:#000000;fill:#323232;fill-opacity:1;fill-rule:nonzero;stroke:none;stroke-width:3;marker:none;visibility:visible;display:inline;overflow:visible;enable-background:accumulate"
     id="rect3023"
     width="70"
     height="25"
     x="3.0078127e-07"
     y="3.0000001e-06" />
  <g
     transform="translate(524.14288,-452.36218)"
     id="node_view"
     inkscape:label="#g8796">
    <rect
       y="452.36218"
       x="-545.14288"
       height="25"
       width="21"
       id="rect3795"
       style="color:#000000;fill:#3c3c3c;fill-opacity:1;fill-rule:nonzero;stroke:none;stroke-width:3;marker:none;visibility:visible;display:inline;overflow:visible;enable-background:accumulate" />
    <path
       inkscape:connector-curvature="0"
       id="path3797"
       d="m -535.14288,460.86218 c -4.46955,0 -7.75,3.84375 -7.75,3.84375 l -0.59375,0.65625 0.59375,0.65625 c 0,0 3.28045,3.84375 7.75,3.84375 4.46955,0 7.75,-3.84375 7.75,-3.84375 l 0.59375,-0.65625 -0.59375,-0.65625 c 0,0 -3.28045,-3.84375 -7.75,-3.84375 z m 0,2 c 2.57125,0 4.53444,1.66642 5.4375,2.5 -0.90306,0.83358 -2.86625,2.5 -5.4375,2.5 -2.57125,0 -4.53444,-1.66642 -5.4375,-2.5 0.90306,-0.83358 2.86625,-2.5 5.4375,-2.5 z"
       style="font-size:medium;font-style:normal;font-variant:normal;font-weight:normal;font-stretch:normal;text-indent:0;text-align:start;text-decoration:none;line-height:normal;letter-spacing:normal;word-spacing:normal;text-transform:none;direction:ltr;block-progression:tb;writing-mode:lr-tb;text-anchor:start;baseline-shift:baseline;color:#000000;fill:#323232;fill-opacity:1;stroke:none;stroke-width:2;marker:none;visibility:visible;display:inline;overflow:visible;enable-background:accumulate;font-family:Sans;-inkscape-font-specification:Sans" />
    <path
       transform="matrix(1.6180339,0,0,1.5,-551.32322,445.86218)"
       d="m 11.236068,13 c 0,1.104569 -0.553406,2 -1.236068,2 -0.6826615,0 -1.236068,-0.895431 -1.236068,-2 0,-1.104569 0.5534065,-2 1.236068,-2 0.682662,0 1.236068,0.895431 1.236068,2 z"
       sodipodi:ry="2"
       sodipodi:rx="1.236068"
       sodipodi:cy="13"
       sodipodi:cx="10"
       id="path3799"
       style="color:#000000;fill:#323232;fill-opacity:1;stroke:none;stroke-width:2;marker:none;visibility:visible;display:inline;overflow:visible;enable-background:accumulate"
       sodipodi:type="arc" />
  </g>
  <rect
     y="40.000004"
     x="3.0078127e-07"
     height="25"
     width="70"
     id="rect3806"
     style="color:#000000;fill:#323232;fill-opacity:1;fill-rule:nonzero;stroke:none;stroke-width:3;marker:none;visibility:visible;display:inline;overflow:visible;enable-background:accumulate" />
  <g
     transform="translate(524.14288,-452.36218)"
     id="node_view_hover"
     inkscape:label="#g8801">
    <rect
       style="color:#000000;fill:#464646;fill-opacity:1;fill-rule:nonzero;stroke:none;stroke-width:3;marker:none;visibility:visible;display:inline;overflow:visible;enable-background:accumulate"
       id="rect3808"
       width="21"
       height="25"
       x="-545.14288"
       y="492.36218" />
    <path
       style="font-size:medium;font-style:normal;font-variant:normal;font-weight:normal;font-stretch:normal;text-indent:0;text-align:start;text-decoration:none;line-height:normal;letter-spacing:normal;word-spacing:normal;text-transform:none;direction:ltr;block-progression:tb;writing-mode:lr-tb;text-anchor:start;baseline-shift:baseline;color:#000000;fill:#5a5a5a;fill-opacity:1;stroke:none;stroke-width:2;marker:none;visibility:visible;display:inline;overflow:visible;enable-background:accumulate;font-family:Sans;-inkscape-font-specification:Sans"
       d="m -535.14288,500.86218 c -4.46955,0 -7.75,3.84375 -7.75,3.84375 l -0.59375,0.65625 0.59375,0.65625 c 0,0 3.28045,3.84375 7.75,3.84375 4.46955,0 7.75,-3.84375 7.75,-3.84375 l 0.59375,-0.65625 -0.59375,-0.65625 c 0,0 -3.28045,-3.84375 -7.75,-3.84375 z m 0,2 c 2.57125,0 4.53444,1.66642 5.4375,2.5 -0.90306,0.83358 -2.86625,2.5 -5.4375,2.5 -2.57125,0 -4.53444,-1.66642 -5.4375,-2.5 0.90306,-0.83358 2.86625,-2.5 5.4375,-2.5 z"
       id="path3810"
       inkscape:connector-curvature="0" />
    <path
       sodipodi:type="arc"
       style="color:#000000;fill:#5a5a5a;fill-opacity:1;stroke:none;stroke-width:2;marker:none;visibility:visible;display:inline;overflow:visible;enable-background:accumulate"
       id="path3812"
       sodipodi:cx="10"
       sodipodi:cy="13"
       sodipodi:rx="1.236068"
       sodipodi:ry="2"
       d="m 11.236068,13 c 0,1.104569 -0.553406,2 -1.236068,2 -0.6826615,0 -1.236068,-0.895431 -1.236068,-2 0,-1.104569 0.5534065,-2 1.236068,-2 0.682662,0 1.236068,0.895431 1.236068,2 z"
       transform="matrix(1.6180339,0,0,1.5,-551.32322,485.86218)" />
  </g>
  <rect
     y="3.0000001e-06"
     x="70"
     height="25"
     width="21"
     id="rect3814"
     style="color:#000000;fill:#09dc00;fill-opacity:1;fill-rule:nonzero;stroke:none;stroke-width:3;marker:none;visibility:visible;display:inline;overflow:visible;enable-background:accumulate" />
  <rect
     style="color:#000000;fill:#89ff84;fill-opacity:1;fill-rule:nonzero;stroke:none;stroke-width:3;marker:none;visibility:visible;display:inline;overflow:visible;enable-background:accumulate"
     id="rect3816"
     width="21"
     height="25"
     x="70"
     y="40.000004" />
  <rect
     style="color:#000000;fill:#323232;fill-opacity:1;fill-rule:nonzero;stroke:none;stroke-width:3;marker:none;visibility:visible;display:inline;overflow:visible;enable-background:accumulate"
     id="rect8247"
     width="70"
     height="25"
     x="3.0078127e-07"
     y="80" />
  <g
     transform="translate(524.14288,-452.36218)"
     id="node_view_pressed"
     inkscape:label="#g8806">
    <rect
       y="532.36218"
       x="-545.14288"
       height="25"
       width="21"
       id="rect8249"
       style="color:#000000;fill:#5a5a5a;fill-opacity:1;fill-rule:nonzero;stroke:none;stroke-width:3;marker:none;visibility:visible;display:inline;overflow:visible;enable-background:accumulate" />
    <path
       inkscape:connector-curvature="0"
       id="path8251"
       d="m -535.14288,540.86218 c -4.46955,0 -7.75,3.84375 -7.75,3.84375 l -0.59375,0.65625 0.59375,0.65625 c 0,0 3.28045,3.84375 7.75,3.84375 4.46955,0 7.75,-3.84375 7.75,-3.84375 l 0.59375,-0.65625 -0.59375,-0.65625 c 0,0 -3.28045,-3.84375 -7.75,-3.84375 z m 0,2 c 2.57125,0 4.53444,1.66642 5.4375,2.5 -0.90306,0.83358 -2.86625,2.5 -5.4375,2.5 -2.57125,0 -4.53444,-1.66642 -5.4375,-2.5 0.90306,-0.83358 2.86625,-2.5 5.4375,-2.5 z"
       style="font-size:medium;font-style:normal;font-variant:normal;font-weight:normal;font-stretch:normal;text-indent:0;text-align:start;text-decoration:none;line-height:normal;letter-spacing:normal;word-spacing:normal;text-transform:none;direction:ltr;block-progression:tb;writing-mode:lr-tb;text-anchor:start;baseline-shift:baseline;color:#000000;fill:#282828;fill-opacity:1;stroke:none;stroke-width:2;marker:none;visibility:visible;display:inline;overflow:visible;enable-background:accumulate;font-family:Sans;-inkscape-font-specification:Sans" />
    <path
       transform="matrix(1.6180339,0,0,1.5,-551.32322,525.86218)"
       d="m 11.236068,13 c 0,1.104569 -0.553406,2 -1.236068,2 -0.6826615,0 -1.236068,-0.895431 -1.236068,-2 0,-1.104569 0.5534065,-2 1.236068,-2 0.682662,0 1.236068,0.895431 1.236068,2 z"
       sodipodi:ry="2"
       sodipodi:rx="1.236068"
       sodipodi:cy="13"
       sodipodi:cx="10"
       id="path8253"
       style="color:#000000;fill:#282828;fill-opacity:1;stroke:none;stroke-width:2;marker:none;visibility:visible;display:inline;overflow:visible;enable-background:accumulate"
       sodipodi:type="arc" />
  </g>
  <rect
     y="80"
     x="70"
     height="25"
     width="21"
     id="rect8255"
     style="color:#000000;fill:#89ff84;fill-opacity:1;fill-rule:nonzero;stroke:none;stroke-width:3;marker:none;visibility:visible;display:inline;overflow:visible;enable-background:accumulate" />
  <rect
     style="color:#000000;fill:#32a032;fill-opacity:1;fill-rule:nonzero;stroke:none;stroke-width:3;marker:none;visibility:visible;display:inline;overflow:visible;enable-background:accumulate"
     id="rect8890"
     width="21"
     height="25"
     x="70"
     y="-49.999996" />
  <g
     id="node_timeline"
     inkscape:label="#g8905">
    <rect
       style="color:#000000;fill:#323232;fill-opacity:1;fill-rule:nonzero;stroke:none;stroke-width:3;marker:none;visibility:visible;display:inline;overflow:visible;enable-background:accumulate"
       id="rect8880"
       width="40"
       height="25"
       x="30"
       y="-49.999996" />
    <path
       sodipodi:nodetypes="ssssssssssccccccc"
       inkscape:connector-curvature="0"
       id="path8892"
       d="m 50,-48 c -5.511003,0 -10,4.488997 -10,10 0,5.511003 4.488997,10 10,10 5.511003,0 10,-4.488997 10,-10 0,-5.511003 -4.488997,-10 -10,-10 z m 0,2 c 4.430123,0 8,3.569877 8,8 0,4.430123 -3.569877,8 -8,8 -4.430123,0 -8,-3.569877 -8,-8 0,-4.430123 3.569877,-8 8,-8 z m -1,1.5 0,7.5 5,0 0,-2 -3,0 0,-5.5 z"
       style="font-size:medium;font-style:normal;font-variant:normal;font-weight:normal;font-stretch:normal;text-indent:0;text-align:start;text-decoration:none;line-height:normal;letter-spacing:normal;word-spacing:normal;text-transform:none;direction:ltr;block-progression:tb;writing-mode:lr-tb;text-anchor:start;baseline-shift:baseline;color:#000000;fill:#464646;fill-opacity:1;fill-rule:nonzero;stroke:none;stroke-width:1.99999976;marker:none;visibility:visible;display:inline;overflow:visible;enable-background:accumulate;font-family:Sans;-inkscape-font-specification:Sans" />
  </g>
</svg>
